<svg width="45" height="45" viewBox="0 0 45 45" fill="none" xmlns="http://www.w3.org/2000/svg">
<g clip-path="url(#clip0_11_2348)">
<path d="M28.1425 21.4277L23.7744 30.1641C23.247 31.2275 21.7177 31.1924 21.2343 30.1113L16.2334 19.0107L13.5966 25.3125H5.32614L21.3662 41.7041C21.9902 42.3457 23.0009 42.3457 23.625 41.7041L39.6738 25.3125H30.0849L28.1425 21.4277ZM41.6338 6.49512L41.4228 6.27539C36.8964 1.65234 29.4873 1.65234 24.9521 6.27539L22.5 8.78906L20.0478 6.28418C15.5214 1.65234 8.10348 1.65234 3.57711 6.28418L3.36617 6.49512C-0.914099 10.8721 -1.09867 17.8418 2.72457 22.5H11.7246L14.8798 14.9238C15.3545 13.79 16.9541 13.7637 17.4638 14.8887L22.5791 26.2529L26.8857 17.6484C27.4043 16.6113 28.8808 16.6113 29.3994 17.6484L31.8252 22.5H42.2754C46.0986 17.8418 45.914 10.8721 41.6338 6.49512Z" fill="#8556AA"/>
</g>
<defs>
<clipPath id="clip0_11_2348">
<rect width="45" height="45" fill="white"/>
</clipPath>
</defs>
</svg>
